<?xml version="1.0" encoding="UTF-8"?>
<svg version="1.1" xmlns="http://www.w3.org/2000/svg" width="150" height="150">
<path d="M0 0 C49.5 0 99 0 150 0 C150 49.5 150 99 150 150 C100.5 150 51 150 0 150 C0 100.5 0 51 0 0 Z " fill="#FEFEFE" transform="translate(0,0)"/>
<path d="M0 0 C13.2 0 26.4 0 40 0 C40 48.18 40 96.36 40 146 C26.8 146 13.6 146 0 146 C0 97.82 0 49.64 0 0 Z " fill="#FCFCFC" transform="translate(106,4)"/>
<path d="M0 0 C49.5 0 99 0 150 0 C150 49.5 150 99 150 150 C148.68 150 147.36 150 146 150 C146 101.82 146 53.64 146 4 C132.8 4 119.6 4 106 4 C106 52.18 106 100.36 106 150 C104.68 150 103.36 150 102 150 C102 102.15 102 54.3 102 5 C69.66 5 37.32 5 4 5 C4 52.52 4 100.04 4 149 C2.68 149 1.36 149 0 149 C0 99.83 0 50.66 0 0 Z " fill="#090909" transform="translate(0,0)"/>
<path d="M0 0 C15.18 0 30.36 0 46 0 C46 1.32 46 2.64 46 4 C30.82 4 15.64 4 0 4 C0 2.68 0 1.36 0 0 Z " fill="#000000" transform="translate(32,75)"/>
</svg>
