<svg xmlns="http://www.w3.org/2000/svg" xmlns:xlink="http://www.w3.org/1999/xlink" width="150" zoomAndPan="magnify" viewBox="0 0 112.5 112.499997" height="150" preserveAspectRatio="xMidYMid meet" version="1.0"><defs><clipPath id="f239032f32"><path d="M 0 0 L 112.003906 0 L 112.003906 3 L 0 3 Z M 0 0 " clip-rule="nonzero"/></clipPath><clipPath id="26c01e7fc1"><path d="M 22 0 L 112.003906 0 L 112.003906 57 L 22 57 Z M 22 0 " clip-rule="nonzero"/></clipPath><clipPath id="6e336bfcf0"><path d="M 0 31 L 62 31 L 62 112.003906 L 0 112.003906 Z M 0 31 " clip-rule="nonzero"/></clipPath><clipPath id="66c85f9d51"><path d="M 0 0 L 3 0 L 3 112.003906 L 0 112.003906 Z M 0 0 " clip-rule="nonzero"/></clipPath></defs><g clip-path="url(#f239032f32)"><path stroke-linecap="butt" transform="matrix(0.746681, 0, 0, 0.746681, 0.0000015, 0.000000995575)" fill="none" stroke-linejoin="miter" d="M -0.00000200889 1.501434 L 150.002277 1.501434 " stroke="#000000" stroke-width="3" stroke-opacity="1" stroke-miterlimit="4"/></g><g clip-path="url(#26c01e7fc1)"><path stroke-linecap="butt" transform="matrix(0.653699, -0.360848, 0.360848, 0.653699, 34.126133, 42.834545)" fill="none" stroke-linejoin="miter" d="M 0.851224 1.236892 C 39.853659 28.019149 78.85657 28.018977 117.85996 1.236378 " stroke="#000000" stroke-width="3" stroke-opacity="1" stroke-miterlimit="4"/></g><g clip-path="url(#6e336bfcf0)"><path stroke-linecap="butt" transform="matrix(0.43235, -0.608775, 0.608775, 0.43235, 0.00369799, 112.055902)" fill="none" stroke-linejoin="miter" d="M 0.927547 1.176742 C 37.907956 30.307676 74.891366 30.305211 111.872276 1.179668 " stroke="#000000" stroke-width="3" stroke-opacity="1" stroke-miterlimit="4"/></g><g clip-path="url(#66c85f9d51)"><path stroke-linecap="butt" transform="matrix(0, 0.746681, -0.746681, 0, 2.240046, 0.000000995575)" fill="none" stroke-linejoin="miter" d="M -0.00000133333 1.498567 L 150.002277 1.498567 " stroke="#000000" stroke-width="3" stroke-opacity="1" stroke-miterlimit="4"/></g><path stroke-linecap="butt" transform="matrix(0.746681, 0, 0, 0.746681, 64.96128, 69.441368)" fill="none" stroke-linejoin="miter" d="M -0.000459027 1.998477 L 47.998387 1.998477 " stroke="#000000" stroke-width="4" stroke-opacity="1" stroke-miterlimit="4"/></svg>