<?xml version="1.0" encoding="UTF-8"?>
<svg version="1.1" xmlns="http://www.w3.org/2000/svg" width="150" height="150">
<path d="M0 0 C49.5 0 99 0 150 0 C150 49.5 150 99 150 150 C100.5 150 51 150 0 150 C0 100.5 0 51 0 0 Z " fill="#FCFCFC" transform="translate(0,0)"/>
<path d="M0 0 C9.57 0 19.14 0 29 0 C29 48.18 29 96.36 29 146 C19.43 146 9.86 146 0 146 C0 97.82 0 49.64 0 0 Z " fill="#FAFAFA" transform="translate(2,4)"/>
<path d="M0 0 C7.26 0 14.52 0 22 0 C22 48.18 22 96.36 22 146 C14.74 146 7.48 146 0 146 C0 97.82 0 49.64 0 0 Z " fill="#FCFCFC" transform="translate(124,4)"/>
<path d="M0 0 C49.5 0 99 0 150 0 C150 49.5 150 99 150 150 C148.68 150 147.36 150 146 150 C146 101.82 146 53.64 146 4 C138.74 4 131.48 4 124 4 C124 52.18 124 100.36 124 150 C122.68 150 121.36 150 120 150 C120 101.82 120 53.64 120 4 C91.62 4 63.24 4 34 4 C34 52.18 34 100.36 34 150 C33.01 150 32.02 150 31 150 C31 101.82 31 53.64 31 4 C21.43 4 11.86 4 2 4 C2 52.18 2 100.36 2 150 C1.34 150 0.68 150 0 150 C0 100.5 0 51 0 0 Z " fill="#020202" transform="translate(0,0)"/>
<path d="M0 0 C17.49 0 34.98 0 53 0 C53 0.99 53 1.98 53 3 C35.51 3 18.02 3 0 3 C0 2.01 0 1.02 0 0 Z " fill="#222222" transform="translate(51,83)"/>
</svg>
