<?xml version="1.0" encoding="UTF-8"?>
<svg version="1.1" xmlns="http://www.w3.org/2000/svg" width="150" height="150">
<path d="M0 0 C49.5 0 99 0 150 0 C150 49.5 150 99 150 150 C100.5 150 51 150 0 150 C0 100.5 0 51 0 0 Z " fill="#FCFCFC" transform="translate(0,0)"/>
<path d="M0 0 C9.57 0 19.14 0 29 0 C29 48.18 29 96.36 29 146 C19.43 146 9.86 146 0 146 C0 97.82 0 49.64 0 0 Z " fill="#FAFAFA" transform="translate(2,4)"/>
<path d="M0 0 C7.26 0 14.52 0 22 0 C22 48.18 22 96.36 22 146 C14.74 146 7.48 146 0 146 C0 97.82 0 49.64 0 0 Z " fill="#FCFCFC" transform="translate(124,4)"/>
<path d="M0 0 C49.5 0 99 0 150 0 C150 49.5 150 99 150 150 C148.68 150 147.36 150 146 150 C146 101.82 146 53.64 146 4 C138.74 4 131.48 4 124 4 C124 52.18 124 100.36 124 150 C122.68 150 121.36 150 120 150 C120 101.82 120 53.64 120 4 C91.62 4 63.24 4 34 4 C34 52.18 34 100.36 34 150 C33.01 150 32.02 150 31 150 C31 101.82 31 53.64 31 4 C21.43 4 11.86 4 2 4 C2 52.18 2 100.36 2 150 C1.34 150 0.68 150 0 150 C0 100.5 0 51 0 0 Z " fill="#020202" transform="translate(0,0)"/>
<path d="M0 0 C2.32217754 3.11619612 4.20700076 6.53390461 6.1875 9.875 C6.75919922 10.81214844 7.33089844 11.74929687 7.91992188 12.71484375 C8.72333008 14.05869141 8.72333008 14.05869141 9.54296875 15.4296875 C10.03821045 16.25710449 10.53345215 17.08452148 11.04370117 17.93701172 C11.35927979 18.61779785 11.6748584 19.29858398 12 20 C11.67 20.66 11.34 21.32 11 22 C7.50797189 20.83599063 7.27269143 20.25731614 5.51953125 17.18359375 C5.07802734 16.41982422 4.63652344 15.65605469 4.18164062 14.86914062 C3.72982422 14.06669922 3.27800781 13.26425781 2.8125 12.4375 C2.34908203 11.63119141 1.88566406 10.82488281 1.40820312 9.99414062 C0.26396754 8.00057554 -0.87163231 6.00257569 -2 4 C-5.68881485 7.53156519 -8.77382244 11.18534092 -11.8125 15.3125 C-12.42254883 16.13717773 -12.42254883 16.13717773 -13.04492188 16.97851562 C-14.03368611 18.31625547 -15.01738585 19.65773623 -16 21 C-16.99 20.67 -17.98 20.34 -19 20 C-16.52229378 15.61379035 -13.59544651 11.70757352 -10.5 7.75 C-10.01402344 7.11320312 -9.52804688 6.47640625 -9.02734375 5.8203125 C-4.48254654 0 -4.48254654 0 0 0 Z " fill="#151515" transform="translate(81,97)"/>
</svg>
