<?xml version="1.0" encoding="UTF-8"?>
<svg version="1.1" xmlns="http://www.w3.org/2000/svg" width="150" height="150">
<path d="M0 0 C49.5 0 99 0 150 0 C150 49.5 150 99 150 150 C100.5 150 51 150 0 150 C0 100.5 0 51 0 0 Z " fill="#FFFFFF" transform="translate(0,0)"/>
<path d="M0 0 C49.5 0 99 0 150 0 C150 49.5 150 99 150 150 C140.1 150 130.2 150 120 150 C120 102.15 120 54.3 120 5 C91.95 5 63.9 5 35 5 C35 52.85 35 100.7 35 150 C23.45 150 11.9 150 0 150 C0 100.5 0 51 0 0 Z " fill="#FAFAFA" transform="translate(0,0)"/>
<path d="M0 0 C7.26 0 14.52 0 22 0 C22 48.18 22 96.36 22 146 C14.74 146 7.48 146 0 146 C0 97.82 0 49.64 0 0 Z " fill="#FCFCFC" transform="translate(124,4)"/>
<path d="M0 0 C49.5 0 99 0 150 0 C150 49.5 150 99 150 150 C148.68 150 147.36 150 146 150 C146 101.82 146 53.64 146 4 C138.74 4 131.48 4 124 4 C124 52.18 124 100.36 124 150 C122.68 150 121.36 150 120 150 C120 102.15 120 54.3 120 5 C91.95 5 63.9 5 35 5 C35 52.85 35 100.7 35 150 C33.68 150 32.36 150 31 150 C31 101.82 31 53.64 31 4 C21.43 4 11.86 4 2 4 C2 52.18 2 100.36 2 150 C1.34 150 0.68 150 0 150 C0 100.5 0 51 0 0 Z " fill="#0C0C0C" transform="translate(0,0)"/>
</svg>
