<svg xmlns="http://www.w3.org/2000/svg" xmlns:xlink="http://www.w3.org/1999/xlink" width="150" zoomAndPan="magnify" viewBox="0 0 112.5 112.499997" height="150" preserveAspectRatio="xMidYMid meet" version="1.0"><defs><clipPath id="aa0d544848"><path d="M 0 0 L 112.003906 0 L 112.003906 2 L 0 2 Z M 0 0 " clip-rule="nonzero"/></clipPath><clipPath id="70fa5b6001"><path d="M 110 0 L 112 0 L 112 112.003906 L 110 112.003906 Z M 110 0 " clip-rule="nonzero"/></clipPath><clipPath id="51cf73d201"><path d="M 0 0 L 2 0 L 2 112.003906 L 0 112.003906 Z M 0 0 " clip-rule="nonzero"/></clipPath><clipPath id="c166cf6a59"><path d="M 49 0 L 112.003906 0 L 112.003906 67 L 49 67 Z M 49 0 " clip-rule="nonzero"/></clipPath><clipPath id="a5a1ebdbfb"><path d="M 65 29 L 112.003906 29 L 112.003906 112.003906 L 65 112.003906 Z M 65 29 " clip-rule="nonzero"/></clipPath><clipPath id="b8dcd21adc"><path d="M 0 27 L 48 27 L 48 112.003906 L 0 112.003906 Z M 0 27 " clip-rule="nonzero"/></clipPath></defs><g clip-path="url(#aa0d544848)"><path stroke-linecap="butt" transform="matrix(0.746681, 0.000000000000000021, -0.000000000000000021, 0.746681, 0.746683, -0.0563372)" fill="none" stroke-linejoin="miter" d="M -0.000788978 1.001422 L 149.002277 1.001422 " stroke="#000000" stroke-width="2" stroke-opacity="1" stroke-miterlimit="4"/></g><g clip-path="url(#70fa5b6001)"><path stroke-linecap="butt" transform="matrix(0, 0.746681, -0.746681, 0, 111.815987, 0.695178)" fill="none" stroke-linejoin="miter" d="M 0.000179778 0.998652 L 149.076486 0.998652 " stroke="#000000" stroke-width="2" stroke-opacity="1" stroke-miterlimit="4"/></g><g clip-path="url(#51cf73d201)"><path stroke-linecap="butt" transform="matrix(0, 0.746681, -0.746681, 0, 1.493364, 0.000000995575)" fill="none" stroke-linejoin="miter" d="M -0.00000133333 1.000789 L 150.002277 1.000789 " stroke="#000000" stroke-width="2" stroke-opacity="1" stroke-miterlimit="4"/></g><g clip-path="url(#c166cf6a59)"><path stroke-linecap="butt" transform="matrix(0.516823, 0.538913, -0.538913, 0.516823, 61.814376, 0.00139119)" fill="none" stroke-linejoin="miter" d="M 0.982647 1.134306 C 33.415578 29.178977 65.846274 29.1775 98.282286 1.137115 " stroke="#000000" stroke-width="3" stroke-opacity="1" stroke-miterlimit="4"/></g><path stroke-linecap="butt" transform="matrix(0.50492, -0.550081, 0.550081, 0.50492, -0.00151197, 53.525118)" fill="none" stroke-linejoin="miter" d="M 0.991664 1.123451 C 32.770246 29.168449 64.542238 29.169643 96.318887 1.123812 " stroke="#000000" stroke-width="3" stroke-opacity="1" stroke-miterlimit="4"/><g clip-path="url(#a5a1ebdbfb)"><path stroke-linecap="butt" transform="matrix(0.313644, 0.677614, -0.677614, 0.313644, 79.477547, 41.510646)" fill="none" stroke-linejoin="miter" d="M 0.813446 1.259971 C 35.022048 23.302561 69.235392 23.303076 103.446533 1.264067 " stroke="#000000" stroke-width="3" stroke-opacity="1" stroke-miterlimit="4"/></g><g clip-path="url(#b8dcd21adc)"><path stroke-linecap="butt" transform="matrix(0.314039, -0.677431, 0.677431, 0.314039, 0.00932332, 112.132401)" fill="none" stroke-linejoin="miter" d="M 0.791842 1.27408 C 36.295442 23.316934 71.79314 23.318064 107.294427 1.27307 " stroke="#000000" stroke-width="3" stroke-opacity="1" stroke-miterlimit="4"/></g><path stroke-linecap="butt" transform="matrix(0.746681, 0, 0, 0.746681, 38.080751, 84.652828)" fill="none" stroke-linejoin="miter" d="M 0.00171444 1.997778 L 48.00056 1.997778 " stroke="#000000" stroke-width="4" stroke-opacity="1" stroke-miterlimit="4"/><path stroke-linecap="butt" transform="matrix(0.255612, -0.701566, 0.701566, 0.255612, 41.185228, 73.527137)" fill="none" stroke-linejoin="miter" d="M -0.000202265 2.002188 L 48.000608 2.002092 " stroke="#000000" stroke-width="4" stroke-opacity="1" stroke-miterlimit="4"/><path stroke-linecap="butt" transform="matrix(0.254238, 0.702066, -0.702066, 0.254238, 58.613566, 39.85195)" fill="none" stroke-linejoin="miter" d="M -0.000637186 1.997629 L 47.999314 1.998023 " stroke="#000000" stroke-width="4" stroke-opacity="1" stroke-miterlimit="4"/></svg>