<svg xmlns="http://www.w3.org/2000/svg" xmlns:xlink="http://www.w3.org/1999/xlink" width="150" zoomAndPan="magnify" viewBox="0 0 112.5 112.499997" height="150" preserveAspectRatio="xMidYMid meet" version="1.0"><defs><clipPath id="64b538a736"><path d="M 0 0 L 112.003906 0 L 112.003906 3 L 0 3 Z M 0 0 " clip-rule="nonzero"/></clipPath><clipPath id="3e20c58216"><path d="M 22 0 L 112.003906 0 L 112.003906 57 L 22 57 Z M 22 0 " clip-rule="nonzero"/></clipPath><clipPath id="f275125c58"><path d="M 0 31 L 62 31 L 62 112.003906 L 0 112.003906 Z M 0 31 " clip-rule="nonzero"/></clipPath><clipPath id="be08d01b62"><path d="M 0 0 L 3 0 L 3 112.003906 L 0 112.003906 Z M 0 0 " clip-rule="nonzero"/></clipPath><clipPath id="e90e7ff22f"><path d="M 64 56 L 111 56 L 111 112.003906 L 64 112.003906 Z M 64 56 " clip-rule="nonzero"/></clipPath><clipPath id="711648ea49"><path d="M 51 56 L 98 56 L 98 112.003906 L 51 112.003906 Z M 51 56 " clip-rule="nonzero"/></clipPath></defs><g clip-path="url(#64b538a736)"><path stroke-linecap="butt" transform="matrix(0.746681, 0, 0, 0.746681, 0.0000015, 0.000000995575)" fill="none" stroke-linejoin="miter" d="M -0.00000200889 1.501434 L 150.002277 1.501434 " stroke="#000000" stroke-width="3" stroke-opacity="1" stroke-miterlimit="4"/></g><g clip-path="url(#3e20c58216)"><path stroke-linecap="butt" transform="matrix(0.653699, -0.360848, 0.360848, 0.653699, 34.126133, 42.834545)" fill="none" stroke-linejoin="miter" d="M 0.851224 1.236892 C 39.853659 28.019149 78.85657 28.018977 117.85996 1.236378 " stroke="#000000" stroke-width="3" stroke-opacity="1" stroke-miterlimit="4"/></g><g clip-path="url(#f275125c58)"><path stroke-linecap="butt" transform="matrix(0.43235, -0.608775, 0.608775, 0.43235, 0.00369799, 112.055902)" fill="none" stroke-linejoin="miter" d="M 0.927547 1.176742 C 37.907956 30.307676 74.891366 30.305211 111.872276 1.179668 " stroke="#000000" stroke-width="3" stroke-opacity="1" stroke-miterlimit="4"/></g><g clip-path="url(#be08d01b62)"><path stroke-linecap="butt" transform="matrix(0, 0.746681, -0.746681, 0, 2.240046, 0.000000995575)" fill="none" stroke-linejoin="miter" d="M -0.00000133333 1.498567 L 150.002277 1.498567 " stroke="#000000" stroke-width="3" stroke-opacity="1" stroke-miterlimit="4"/></g><path stroke-linecap="butt" transform="matrix(0.249986, 0.703591, -0.703591, 0.249986, 83.223319, 44.463352)" fill="none" stroke-linejoin="miter" d="M 0.00203748 2.000342 L 47.998768 1.998252 " stroke="#000000" stroke-width="4" stroke-opacity="1" stroke-miterlimit="4"/><path stroke-linecap="butt" transform="matrix(0.25749, -0.70088, 0.70088, 0.25749, 66.6477, 78.188376)" fill="none" stroke-linejoin="miter" d="M 0.000899735 2.001556 L 47.998836 2.002131 " stroke="#000000" stroke-width="4" stroke-opacity="1" stroke-miterlimit="4"/><g clip-path="url(#e90e7ff22f)"><path stroke-linecap="butt" transform="matrix(0.249986, 0.703591, -0.703591, 0.249986, 83.223319, 72.819882)" fill="none" stroke-linejoin="miter" d="M 0.000697424 1.999866 L 48.002358 1.999527 " stroke="#000000" stroke-width="4" stroke-opacity="1" stroke-miterlimit="4"/></g><g clip-path="url(#711648ea49)"><path stroke-linecap="butt" transform="matrix(0.25749, -0.70088, 0.70088, 0.25749, 66.6477, 106.544899)" fill="none" stroke-linejoin="miter" d="M 0.00222562 2.001069 L 48.000162 2.001643 " stroke="#000000" stroke-width="4" stroke-opacity="1" stroke-miterlimit="4"/></g></svg>