<svg xmlns="http://www.w3.org/2000/svg" xmlns:xlink="http://www.w3.org/1999/xlink" width="150" zoomAndPan="magnify" viewBox="0 0 112.5 112.499997" height="150" preserveAspectRatio="xMidYMid meet" version="1.0"><defs><clipPath id="3b23076991"><path d="M 0 0 L 112.003906 0 L 112.003906 3 L 0 3 Z M 0 0 " clip-rule="nonzero"/></clipPath><clipPath id="c28b85985e"><path d="M 40 26 L 112.003906 26 L 112.003906 112.003906 L 40 112.003906 Z M 40 26 " clip-rule="nonzero"/></clipPath><clipPath id="47e9e6e8f2"><path d="M 109 0 L 112 0 L 112 112.003906 L 109 112.003906 Z M 109 0 " clip-rule="nonzero"/></clipPath></defs><g clip-path="url(#3b23076991)"><path stroke-linecap="butt" transform="matrix(0.746681, 0, 0, 0.746681, 0.0000015, 0.000000995575)" fill="none" stroke-linejoin="miter" d="M -0.00000200889 1.501434 L 150.002277 1.501434 " stroke="#000000" stroke-width="3" stroke-opacity="1" stroke-miterlimit="4"/></g><path stroke-linecap="butt" transform="matrix(0.67565, 0.317852, -0.317852, 0.67565, 0.452279, 0.000764488)" fill="none" stroke-linejoin="miter" d="M 0.848578 1.23582 C 39.851638 28.017412 78.859092 28.017177 117.859245 1.234836 " stroke="#000000" stroke-width="3" stroke-opacity="1" stroke-miterlimit="4"/><g clip-path="url(#c28b85985e)"><path stroke-linecap="butt" transform="matrix(0.464833, 0.584349, -0.584349, 0.464833, 53.050389, 38.321636)" fill="none" stroke-linejoin="miter" d="M 0.861029 1.22572 C 42.278134 30.354797 83.697945 30.353717 125.117207 1.226574 " stroke="#000000" stroke-width="3" stroke-opacity="1" stroke-miterlimit="4"/></g><g clip-path="url(#47e9e6e8f2)"><path stroke-linecap="butt" transform="matrix(0, 0.746681, -0.746681, 0, 111.616534, 1.120023)" fill="none" stroke-linejoin="miter" d="M 0.00143395 1.50056 L 149.998481 1.50056 " stroke="#000000" stroke-width="3" stroke-opacity="1" stroke-miterlimit="4"/></g></svg>